<?xml version="1.0" standalone="no"?>
 <!DOCTYPE svg PUBLIC "-//W3C//DTD SVG 1.1//EN" 
 "http://www.w3.org/Graphics/SVG/1.1/DTD/svg11.dtd"> 
<svg xmlns="http://www.w3.org/2000/svg" version="1.1" 
    width="29.7002cm" height="21.0007cm" viewBox="0 0 116930 82680 ">
<title>SVG Picture created as uartusb-F.Cu.svg date 2017/09/06 10:17:36 </title>
  <desc>Picture generated by PCBNEW </desc>
<g style="fill:#000000; fill-opacity:1;stroke:#000000; stroke-opacity:1;
stroke-linecap:round; stroke-linejoin:round; "
 transform="translate(0 0) scale(1 1)">
</g>
<g style="fill:#000000; fill-opacity:0.0; 
stroke:#000000; stroke-width:-0.000393701; stroke-opacity:1; 
stroke-linecap:round; stroke-linejoin:round;">
</g>
<g style="fill:#000000; fill-opacity:0.0; 
stroke:#000000; stroke-width:0; stroke-opacity:1; 
stroke-linecap:round; stroke-linejoin:round;">
</g>
<g style="fill:#000000; fill-opacity:1.0; 
stroke:#000000; stroke-width:0; stroke-opacity:1; 
stroke-linecap:round; stroke-linejoin:round;">
<polyline style="fill-rule:evenodd;"
points="67549,34980
67253,34980
67253,34507
67549,34507
67549,34980
" /> 
<polyline style="fill-rule:evenodd;"
points="67549,34232
67253,34232
67253,33759
67549,33759
67549,34232
" /> 
<polyline style="fill-rule:evenodd;"
points="67206,35803
67206,35625
67895,35625
67895,35803
67206,35803
" /> 
<polyline style="fill-rule:evenodd;"
points="67206,36059
67206,35881
67895,35881
67895,36059
67206,36059
" /> 
<polyline style="fill-rule:evenodd;"
points="67206,36314
67206,36137
67895,36137
67895,36314
67206,36314
" /> 
<polyline style="fill-rule:evenodd;"
points="67206,36570
67206,36393
67895,36393
67895,36570
67206,36570
" /> 
<polyline style="fill-rule:evenodd;"
points="67206,36826
67206,36649
67895,36649
67895,36826
67206,36826
" /> 
<polyline style="fill-rule:evenodd;"
points="67206,37082
67206,36905
67895,36905
67895,37082
67206,37082
" /> 
<polyline style="fill-rule:evenodd;"
points="67206,37338
67206,37161
67895,37161
67895,37338
67206,37338
" /> 
<polyline style="fill-rule:evenodd;"
points="67206,37594
67206,37417
67895,37417
67895,37594
67206,37594
" /> 
<polyline style="fill-rule:evenodd;"
points="67206,37850
67206,37673
67895,37673
67895,37850
67206,37850
" /> 
<polyline style="fill-rule:evenodd;"
points="67206,38106
67206,37929
67895,37929
67895,38106
67206,38106
" /> 
<polyline style="fill-rule:evenodd;"
points="67206,38362
67206,38185
67895,38185
67895,38362
67206,38362
" /> 
<polyline style="fill-rule:evenodd;"
points="67206,38618
67206,38440
67895,38440
67895,38618
67206,38618
" /> 
<polyline style="fill-rule:evenodd;"
points="67206,38874
67206,38696
67895,38696
67895,38874
67206,38874
" /> 
<polyline style="fill-rule:evenodd;"
points="67206,39129
67206,38952
67895,38952
67895,39129
67206,39129
" /> 
<polyline style="fill-rule:evenodd;"
points="70041,39129
70041,38952
70730,38952
70730,39129
70041,39129
" /> 
<polyline style="fill-rule:evenodd;"
points="70041,38874
70041,38696
70730,38696
70730,38874
70041,38874
" /> 
<polyline style="fill-rule:evenodd;"
points="70041,38618
70041,38440
70730,38440
70730,38618
70041,38618
" /> 
<polyline style="fill-rule:evenodd;"
points="70041,38362
70041,38185
70730,38185
70730,38362
70041,38362
" /> 
<polyline style="fill-rule:evenodd;"
points="70041,38106
70041,37929
70730,37929
70730,38106
70041,38106
" /> 
<polyline style="fill-rule:evenodd;"
points="70041,37850
70041,37673
70730,37673
70730,37850
70041,37850
" /> 
<polyline style="fill-rule:evenodd;"
points="70041,37594
70041,37417
70730,37417
70730,37594
70041,37594
" /> 
<polyline style="fill-rule:evenodd;"
points="70041,37338
70041,37161
70730,37161
70730,37338
70041,37338
" /> 
<polyline style="fill-rule:evenodd;"
points="70041,37082
70041,36905
70730,36905
70730,37082
70041,37082
" /> 
<polyline style="fill-rule:evenodd;"
points="70041,36826
70041,36649
70730,36649
70730,36826
70041,36826
" /> 
<polyline style="fill-rule:evenodd;"
points="70041,36570
70041,36393
70730,36393
70730,36570
70041,36570
" /> 
<polyline style="fill-rule:evenodd;"
points="70041,36314
70041,36137
70730,36137
70730,36314
70041,36314
" /> 
<polyline style="fill-rule:evenodd;"
points="70041,36059
70041,35881
70730,35881
70730,36059
70041,36059
" /> 
<polyline style="fill-rule:evenodd;"
points="70041,35803
70041,35625
70730,35625
70730,35803
70041,35803
" /> 
<polyline style="fill-rule:evenodd;"
points="72677,40177
72677,39822
73149,39822
73149,40177
72677,40177
" /> 
<polyline style="fill-rule:evenodd;"
points="73543,40177
73543,39822
74015,39822
74015,40177
73543,40177
" /> 
<polyline style="fill-rule:evenodd;"
points="71340,37996
71045,37996
71045,37523
71340,37523
71340,37996
" /> 
<polyline style="fill-rule:evenodd;"
points="71340,37248
71045,37248
71045,36775
71340,36775
71340,37248
" /> 
<polyline style="fill-rule:evenodd;"
points="69552,39789
69847,39789
69847,40262
69552,40262
69552,39789
" /> 
<polyline style="fill-rule:evenodd;"
points="69552,40537
69847,40537
69847,41010
69552,41010
69552,40537
" /> 
<polyline style="fill-rule:evenodd;"
points="62003,33196
62003,33866
61334,33866
61334,33196
62003,33196
" /> 
</g>
<g style="fill:#000000; fill-opacity:1.0; 
stroke:#000000; stroke-width:669.291; stroke-opacity:1; 
stroke-linecap:round; stroke-linejoin:round;">
</g>
<g style="fill:#000000; fill-opacity:0.0; 
stroke:#000000; stroke-width:669.291; stroke-opacity:1; 
stroke-linecap:round; stroke-linejoin:round;">
<path d="M61669 34531
L61669 34531
" />
<path d="M61669 35531
L61669 35531
" />
<path d="M61669 36531
L61669 36531
" />
<path d="M61669 37531
L61669 37531
" />
<path d="M61669 38531
L61669 38531
" />
<path d="M61669 39531
L61669 39531
" />
<path d="M61669 40531
L61669 40531
" />
</g>
<g style="fill:#000000; fill-opacity:0.0; 
stroke:#000000; stroke-width:0; stroke-opacity:1; 
stroke-linecap:round; stroke-linejoin:round;">
</g>
<g style="fill:#000000; fill-opacity:1.0; 
stroke:#000000; stroke-width:0; stroke-opacity:1; 
stroke-linecap:round; stroke-linejoin:round;">
<polyline style="fill-rule:evenodd;"
points="62460,38415
62814,38415
62814,38887
62460,38887
62460,38415
" /> 
<polyline style="fill-rule:evenodd;"
points="62460,39281
62814,39281
62814,39753
62460,39753
62460,39281
" /> 
<polyline style="fill-rule:evenodd;"
points="74448,37775
74448,38129
73976,38129
73976,37775
74448,37775
" /> 
<polyline style="fill-rule:evenodd;"
points="73582,37775
73582,38129
73110,38129
73110,37775
73582,37775
" /> 
<polyline style="fill-rule:evenodd;"
points="74015,38838
74015,39192
73543,39192
73543,38838
74015,38838
" /> 
<polyline style="fill-rule:evenodd;"
points="73149,38838
73149,39192
72677,39192
72677,38838
73149,38838
" /> 
<polyline style="fill-rule:evenodd;"
points="70372,33622
70667,33622
70667,34094
70372,34094
70372,33622
" /> 
<polyline style="fill-rule:evenodd;"
points="70372,34370
70667,34370
70667,34842
70372,34842
70372,34370
" /> 
<polyline style="fill-rule:evenodd;"
points="68458,33700
68753,33700
68753,34173
68458,34173
68458,33700
" /> 
<polyline style="fill-rule:evenodd;"
points="68458,34448
68753,34448
68753,34921
68458,34921
68458,34448
" /> 
<polyline style="fill-rule:evenodd;"
points="65822,38630
66177,38630
66177,39103
65822,39103
65822,38630
" /> 
<polyline style="fill-rule:evenodd;"
points="65822,39496
66177,39496
66177,39969
65822,39969
65822,39496
" /> 
<polyline style="fill-rule:evenodd;"
points="66422,39030
66777,39030
66777,39503
66422,39503
66422,39030
" /> 
<polyline style="fill-rule:evenodd;"
points="66422,39896
66777,39896
66777,40369
66422,40369
66422,39896
" /> 
<circle cx="69405.5" cy="34614.2" r="295.276" /> 
</g>
<g style="fill:#000000; fill-opacity:1.0; 
stroke:#000000; stroke-width:39.3701; stroke-opacity:1; 
stroke-linecap:round; stroke-linejoin:round;">
</g>
<g style="fill:#000000; fill-opacity:1.0; 
stroke:#000000; stroke-width:0; stroke-opacity:1; 
stroke-linecap:round; stroke-linejoin:round;">
<circle cx="71326.8" cy="34614.2" r="295.276" /> 
</g>
<g style="fill:#000000; fill-opacity:1.0; 
stroke:#000000; stroke-width:39.3701; stroke-opacity:1; 
stroke-linecap:round; stroke-linejoin:round;">
</g>
<g style="fill:#000000; fill-opacity:1.0; 
stroke:#000000; stroke-width:0; stroke-opacity:1; 
stroke-linecap:round; stroke-linejoin:round;">
<circle cx="63992.1" cy="37755.9" r="393.701" /> 
</g>
<g style="fill:#000000; fill-opacity:1.0; 
stroke:#000000; stroke-width:39.3701; stroke-opacity:1; 
stroke-linecap:round; stroke-linejoin:round;">
</g>
<g style="fill:#000000; fill-opacity:1.0; 
stroke:#000000; stroke-width:0; stroke-opacity:1; 
stroke-linecap:round; stroke-linejoin:round;">
<circle cx="63779.5" cy="39055.1" r="393.701" /> 
</g>
<g style="fill:#000000; fill-opacity:1.0; 
stroke:#000000; stroke-width:39.3701; stroke-opacity:1; 
stroke-linecap:round; stroke-linejoin:round;">
</g>
<g style="fill:#000000; fill-opacity:1.0; 
stroke:#000000; stroke-width:0; stroke-opacity:1; 
stroke-linecap:round; stroke-linejoin:round;">
<circle cx="64779.5" cy="39055.1" r="393.701" /> 
</g>
<g style="fill:#000000; fill-opacity:1.0; 
stroke:#000000; stroke-width:39.3701; stroke-opacity:1; 
stroke-linecap:round; stroke-linejoin:round;">
</g>
<g style="fill:#000000; fill-opacity:1.0; 
stroke:#000000; stroke-width:0; stroke-opacity:1; 
stroke-linecap:round; stroke-linejoin:round;">
<circle cx="62992.1" cy="37755.9" r="393.701" /> 
</g>
<g style="fill:#000000; fill-opacity:1.0; 
stroke:#000000; stroke-width:39.3701; stroke-opacity:1; 
stroke-linecap:round; stroke-linejoin:round;">
</g>
<g style="fill:#000000; fill-opacity:1.0; 
stroke:#000000; stroke-width:0; stroke-opacity:1; 
stroke-linecap:round; stroke-linejoin:round;">
<polyline style="fill-rule:evenodd;"
points="62854,40177
63523,40177
63523,40846
62854,40846
62854,40177
" /> 
</g>
<g style="fill:#000000; fill-opacity:1.0; 
stroke:#000000; stroke-width:669.291; stroke-opacity:1; 
stroke-linecap:round; stroke-linejoin:round;">
</g>
<g style="fill:#000000; fill-opacity:0.0; 
stroke:#000000; stroke-width:669.291; stroke-opacity:1; 
stroke-linecap:round; stroke-linejoin:round;">
<path d="M64188 40511
L64188 40511
" />
</g>
<g style="fill:#000000; fill-opacity:1.0; 
stroke:#000000; stroke-width:0; stroke-opacity:1; 
stroke-linecap:round; stroke-linejoin:round;">
<circle cx="76850.4" cy="38011.8" r="295.276" /> 
</g>
<g style="fill:#000000; fill-opacity:1.0; 
stroke:#000000; stroke-width:39.3701; stroke-opacity:1; 
stroke-linecap:round; stroke-linejoin:round;">
</g>
<g style="fill:#000000; fill-opacity:1.0; 
stroke:#000000; stroke-width:0; stroke-opacity:1; 
stroke-linecap:round; stroke-linejoin:round;">
<circle cx="76063" cy="36732.3" r="314.961" /> 
</g>
<g style="fill:#000000; fill-opacity:1.0; 
stroke:#000000; stroke-width:39.3701; stroke-opacity:1; 
stroke-linecap:round; stroke-linejoin:round;">
</g>
<g style="fill:#000000; fill-opacity:1.0; 
stroke:#000000; stroke-width:0; stroke-opacity:1; 
stroke-linecap:round; stroke-linejoin:round;">
<circle cx="76063" cy="37519.7" r="314.961" /> 
</g>
<g style="fill:#000000; fill-opacity:1.0; 
stroke:#000000; stroke-width:39.3701; stroke-opacity:1; 
stroke-linecap:round; stroke-linejoin:round;">
</g>
<g style="fill:#000000; fill-opacity:1.0; 
stroke:#000000; stroke-width:0; stroke-opacity:1; 
stroke-linecap:round; stroke-linejoin:round;">
<circle cx="76063" cy="35944.9" r="314.961" /> 
</g>
<g style="fill:#000000; fill-opacity:1.0; 
stroke:#000000; stroke-width:39.3701; stroke-opacity:1; 
stroke-linecap:round; stroke-linejoin:round;">
</g>
<g style="fill:#000000; fill-opacity:1.0; 
stroke:#000000; stroke-width:0; stroke-opacity:1; 
stroke-linecap:round; stroke-linejoin:round;">
<circle cx="76063" cy="38307.1" r="314.961" /> 
</g>
<g style="fill:#000000; fill-opacity:1.0; 
stroke:#000000; stroke-width:39.3701; stroke-opacity:1; 
stroke-linecap:round; stroke-linejoin:round;">
</g>
<g style="fill:#000000; fill-opacity:1.0; 
stroke:#000000; stroke-width:0; stroke-opacity:1; 
stroke-linecap:round; stroke-linejoin:round;">
<circle cx="76850.4" cy="34763.8" r="590.551" /> 
</g>
<g style="fill:#000000; fill-opacity:1.0; 
stroke:#000000; stroke-width:39.3701; stroke-opacity:1; 
stroke-linecap:round; stroke-linejoin:round;">
</g>
<g style="fill:#000000; fill-opacity:1.0; 
stroke:#000000; stroke-width:0; stroke-opacity:1; 
stroke-linecap:round; stroke-linejoin:round;">
<circle cx="76850.4" cy="39488.2" r="590.551" /> 
</g>
<g style="fill:#000000; fill-opacity:1.0; 
stroke:#000000; stroke-width:39.3701; stroke-opacity:1; 
stroke-linecap:round; stroke-linejoin:round;">
</g>
<g style="fill:#000000; fill-opacity:1.0; 
stroke:#000000; stroke-width:0; stroke-opacity:1; 
stroke-linecap:round; stroke-linejoin:round;">
<circle cx="76850.4" cy="36240.2" r="295.276" /> 
</g>
<g style="fill:#000000; fill-opacity:1.0; 
stroke:#000000; stroke-width:39.3701; stroke-opacity:1; 
stroke-linecap:round; stroke-linejoin:round;">
</g>
<g style="fill:#000000; fill-opacity:1.0; 
stroke:#000000; stroke-width:0; stroke-opacity:1; 
stroke-linecap:round; stroke-linejoin:round;">
<circle cx="65500" cy="40400" r="354.331" /> 
</g>
<g style="fill:#000000; fill-opacity:1.0; 
stroke:#000000; stroke-width:39.3701; stroke-opacity:1; 
stroke-linecap:round; stroke-linejoin:round;">
</g>
<g style="fill:#000000; fill-opacity:1.0; 
stroke:#000000; stroke-width:0; stroke-opacity:1; 
stroke-linecap:round; stroke-linejoin:round;">
<circle cx="65400" cy="34900" r="354.331" /> 
</g>
<g style="fill:#000000; fill-opacity:1.0; 
stroke:#000000; stroke-width:39.3701; stroke-opacity:1; 
stroke-linecap:round; stroke-linejoin:round;">
</g>
<g style="fill:#000000; fill-opacity:1.0; 
stroke:#000000; stroke-width:0; stroke-opacity:1; 
stroke-linecap:round; stroke-linejoin:round;">
<circle cx="67500" cy="40200" r="354.331" /> 
</g>
<g style="fill:#000000; fill-opacity:1.0; 
stroke:#000000; stroke-width:39.3701; stroke-opacity:1; 
stroke-linecap:round; stroke-linejoin:round;">
</g>
<g style="fill:#000000; fill-opacity:1.0; 
stroke:#000000; stroke-width:0; stroke-opacity:1; 
stroke-linecap:round; stroke-linejoin:round;">
<circle cx="72300" cy="36400" r="354.331" /> 
</g>
<g style="fill:#000000; fill-opacity:1.0; 
stroke:#000000; stroke-width:39.3701; stroke-opacity:1; 
stroke-linecap:round; stroke-linejoin:round;">
</g>
<g style="fill:#000000; fill-opacity:1.0; 
stroke:#000000; stroke-width:118.11; stroke-opacity:1; 
stroke-linecap:round; stroke-linejoin:round;">
</g>
<g style="fill:#000000; fill-opacity:0.0; 
stroke:#000000; stroke-width:118.11; stroke-opacity:1; 
stroke-linecap:round; stroke-linejoin:round;">
<path d="M62618 39940
L62618 39537
" />
<path d="M62618 39537
L62637 39517
" />
</g>
<g style="fill:#000000; fill-opacity:0.0; 
stroke:#000000; stroke-width:98.4252; stroke-opacity:1; 
stroke-linecap:round; stroke-linejoin:round;">
<path d="M62624 39531
L62637 39517
" />
</g>
<g style="fill:#000000; fill-opacity:0.0; 
stroke:#000000; stroke-width:118.11; stroke-opacity:1; 
stroke-linecap:round; stroke-linejoin:round;">
<path d="M64188 40511
L64188 40232
" />
<path d="M64188 40232
L63897 39940
" />
<path d="M62078 39940
L61669 39531
" />
<path d="M63897 39940
L62618 39940
" />
<path d="M62618 39940
L62078 39940
" />
<path d="M65500 40400
L64300 40400
" />
<path d="M64300 40400
L64188 40511
" />
<path d="M66653 34900
L67245 34900
" />
<path d="M67245 34900
L67401 34744
" />
</g>
<g style="fill:#000000; fill-opacity:0.0; 
stroke:#000000; stroke-width:98.4252; stroke-opacity:1; 
stroke-linecap:round; stroke-linejoin:round;">
<path d="M65700 34900
L65400 34900
" />
</g>
<g style="fill:#000000; fill-opacity:0.0; 
stroke:#000000; stroke-width:118.11; stroke-opacity:1; 
stroke-linecap:round; stroke-linejoin:round;">
<path d="M65700 34900
L66653 34900
" />
<path d="M66653 34900
L67100 34900
" />
<path d="M68217 36482
L68300 36400
" />
<path d="M68300 36400
L68300 35400
" />
<path d="M68300 35400
L67800 34900
" />
<path d="M67800 34900
L67100 34900
" />
<path d="M67551 36482
L68217 36482
" />
<path d="M76062 35944
L76062 35551
" />
<path d="M76062 35551
L76850 34763
" />
<path d="M70385 36226
L69521 36226
" />
<path d="M69409 36338
L69409 36790
" />
<path d="M69521 36226
L69409 36338
" />
<path d="M70385 36226
L70385 36482
" />
<path d="M70385 37250
L70385 36994
" />
<path d="M70385 37505
L70385 37250
" />
<path d="M70385 38273
L69572 38273
" />
<path d="M68818 37480
L68844 37505
" />
<path d="M68779 37480
L68818 37480
" />
<path d="M69572 38273
L68779 37480
" />
<path d="M70385 37505
L68844 37505
" />
<path d="M68844 37505
L68588 37250
" />
<path d="M70385 37250
L68950 37250
" />
<path d="M70385 36994
L69205 36994
" />
<path d="M69205 36994
L69231 36968
" />
<path d="M69231 36968
L69251 36968
" />
<path d="M69251 36968
L69251 36948
" />
<path d="M70385 37250
L70954 37250
" />
<path d="M70954 37250
L71192 37011
" />
<path d="M70385 36994
L71175 36994
" />
<path d="M71175 36994
L71192 37011
" />
<path d="M70385 36226
L70990 36226
" />
<path d="M71192 36429
L71192 37011
" />
<path d="M70990 36226
L71192 36429
" />
<path d="M70385 36482
L71009 36482
" />
<path d="M71009 36482
L71192 36665
" />
<path d="M71192 36665
L71192 37011
" />
</g>
<g style="fill:#000000; fill-opacity:0.0; 
stroke:#000000; stroke-width:98.4252; stroke-opacity:1; 
stroke-linecap:round; stroke-linejoin:round;">
<path d="M67551 37250
L68588 37250
" />
<path d="M68588 37250
L68950 37250
" />
</g>
<g style="fill:#000000; fill-opacity:0.0; 
stroke:#000000; stroke-width:118.11; stroke-opacity:1; 
stroke-linecap:round; stroke-linejoin:round;">
<path d="M68950 37250
L69251 36948
" />
<path d="M69717 36482
L70385 36482
" />
<path d="M69409 36790
L69717 36482
" />
<path d="M69251 36948
L69409 36790
" />
<path d="M72300 36400
L72300 37070
" />
<path d="M72300 37070
L71610 37759
" />
<path d="M66000 39733
L66000 39750
" />
<path d="M66000 39750
L66383 40133
" />
<path d="M66383 40133
L66600 40133
" />
<path d="M61669 38531
L61669 38539
" />
<path d="M61669 38539
L62214 39084
" />
<path d="M62214 39084
L62874 39084
" />
<path d="M62874 39084
L63513 39724
" />
<path d="M63513 39724
L65991 39724
" />
<path d="M65991 39724
L66000 39733
" />
<path d="M66600 40133
L67433 40133
" />
<path d="M67433 40133
L67500 40200
" />
<path d="M71192 37759
L71610 37759
" />
<path d="M70385 37761
L71190 37761
" />
</g>
<g style="fill:#000000; fill-opacity:0.0; 
stroke:#000000; stroke-width:98.4252; stroke-opacity:1; 
stroke-linecap:round; stroke-linejoin:round;">
<path d="M71190 37761
L71192 37759
" />
</g>
<g style="fill:#000000; fill-opacity:0.0; 
stroke:#000000; stroke-width:118.11; stroke-opacity:1; 
stroke-linecap:round; stroke-linejoin:round;">
<path d="M72755 40025
L72887 40025
" />
<path d="M72887 40025
L72913 40000
" />
<path d="M69700 40025
L72755 40025
" />
<path d="M61669 40531
L63169 40531
" />
<path d="M63169 40531
L63188 40511
" />
<path d="M63188 40511
L63385 40511
" />
<path d="M63385 40511
L63877 41003
" />
<path d="M68110 40688
L68110 40689
" />
<path d="M67795 41003
L68110 40688
" />
<path d="M63877 41003
L67795 41003
" />
<path d="M63188 40511
L63188 40551
" />
<path d="M63169 40531
L63188 40511
" />
<path d="M68774 40025
L68110 40689
" />
<path d="M69700 40025
L68774 40025
" />
<path d="M70385 38529
L69950 38529
" />
<path d="M69704 38775
L69704 40019
" />
<path d="M69950 38529
L69704 38775
" />
<path d="M67551 36738
L62462 36738
" />
<path d="M62462 36738
L61669 37531
" />
<path d="M67551 35714
L64336 35714
" />
<path d="M64336 35714
L63153 34531
" />
<path d="M63153 34531
L61669 34531
" />
</g>
<g style="fill:#000000; fill-opacity:0.0; 
stroke:#000000; stroke-width:98.4252; stroke-opacity:1; 
stroke-linecap:round; stroke-linejoin:round;">
<path d="M67514 35714
L67551 35714
" />
</g>
<g style="fill:#000000; fill-opacity:0.0; 
stroke:#000000; stroke-width:118.11; stroke-opacity:1; 
stroke-linecap:round; stroke-linejoin:round;">
<path d="M67551 35970
L63214 35970
" />
<path d="M62775 35531
L61669 35531
" />
<path d="M63214 35970
L62775 35531
" />
<path d="M67551 36226
L61974 36226
" />
<path d="M61974 36226
L61669 36531
" />
<path d="M62637 38651
L63375 38651
" />
<path d="M63375 38651
L63779 39055
" />
<path d="M67551 38017
L64856 38017
" />
<path d="M64856 38017
L63818 39055
" />
</g>
<g style="fill:#000000; fill-opacity:0.0; 
stroke:#000000; stroke-width:98.4252; stroke-opacity:1; 
stroke-linecap:round; stroke-linejoin:round;">
<path d="M63818 39055
L64094 39055
" />
</g>
<g style="fill:#000000; fill-opacity:0.0; 
stroke:#000000; stroke-width:118.11; stroke-opacity:1; 
stroke-linecap:round; stroke-linejoin:round;">
<path d="M76062 37519
L74645 37519
" />
<path d="M74645 37519
L74212 37952
" />
<path d="M71968 38785
L72041 38785
" />
<path d="M72874 37952
L73346 37952
" />
<path d="M72041 38785
L72874 37952
" />
<path d="M70385 38785
L71968 38785
" />
<path d="M73779 39015
L73779 37716
" />
<path d="M74763 36732
L76062 36732
" />
<path d="M73779 37716
L74763 36732
" />
<path d="M73779 40000
L73779 39015
" />
<path d="M72322 39041
L72887 39041
" />
<path d="M72887 39041
L72913 39015
" />
<path d="M70385 39041
L72322 39041
" />
<path d="M72322 39041
L72935 39041
" />
<path d="M67551 37761
L64139 37761
" />
<path d="M64139 37761
L64133 37755
" />
<path d="M67551 38273
L65505 38273
" />
<path d="M65505 38273
L64724 39055
" />
<path d="M70519 34606
L71318 34606
" />
</g>
<g style="fill:#000000; fill-opacity:0.0; 
stroke:#000000; stroke-width:98.4252; stroke-opacity:1; 
stroke-linecap:round; stroke-linejoin:round;">
<path d="M71318 34606
L71326 34614
" />
</g>
<g style="fill:#000000; fill-opacity:0.0; 
stroke:#000000; stroke-width:118.11; stroke-opacity:1; 
stroke-linecap:round; stroke-linejoin:round;">
<path d="M70385 35970
L71021 35970
" />
<path d="M71326 35665
L71326 34614
" />
<path d="M71021 35970
L71326 35665
" />
<path d="M68606 34685
L69334 34685
" />
</g>
<g style="fill:#000000; fill-opacity:0.0; 
stroke:#000000; stroke-width:98.4252; stroke-opacity:1; 
stroke-linecap:round; stroke-linejoin:round;">
<path d="M69334 34685
L69405 34614
" />
</g>
<g style="fill:#000000; fill-opacity:0.0; 
stroke:#000000; stroke-width:118.11; stroke-opacity:1; 
stroke-linecap:round; stroke-linejoin:round;">
<path d="M70385 35714
L69820 35714
" />
<path d="M69405 35299
L69405 34614
" />
<path d="M69820 35714
L69405 35299
" />
</g>
<g style="fill:#000000; fill-opacity:0.0; 
stroke:#000000; stroke-width:98.4252; stroke-opacity:1; 
stroke-linecap:round; stroke-linejoin:round;">
<path d="M67551 38785
L66081 38785
" />
<path d="M66081 38785
L66000 38866
" />
<path d="M67551 39041
L66825 39041
" />
<path d="M66825 39041
L66600 39266
" />
</g>
<g style="fill:#000000; fill-opacity:0.0; 
stroke:#000000; stroke-width:118.11; stroke-opacity:1; 
stroke-linecap:round; stroke-linejoin:round;">
<path d="M67551 36994
L63753 36994
" />
<path d="M63753 36994
L62992 37755
" />
</g>
<g style="fill:#000000; fill-opacity:1.0; 
stroke:#000000; stroke-width:196.85; stroke-opacity:1; 
stroke-linecap:round; stroke-linejoin:round;">
<polyline style="fill-rule:evenodd;"
points="78494,41328
60167,41328
60167,33606
61039,33606
61039,33924
61084,34033
61167,34116
61260,34154
61149,34320
61107,34531
61149,34742
61268,34921
61433,35031
61268,35141
61149,35320
61107,35531
61149,35742
61268,35921
61433,36031
61268,36141
61149,36320
61107,36531
61149,36742
61268,36921
61433,37031
61268,37141
61149,37320
61107,37531
61149,37742
61268,37921
61433,38031
61268,38141
61149,38320
61107,38531
61149,38742
61268,38921
61433,39031
61268,39141
61149,39320
61107,39531
61149,39742
61268,39921
61433,40031
61268,40141
61149,40320
61107,40531
61149,40742
61268,40921
61447,41040
61658,41082
61680,41082
61891,41040
62069,40921
62146,40807
62633,40807
62633,40846
62648,40926
62696,41000
62768,41049
62854,41067
63523,41067
63547,41062
63683,41198
63772,41258
63877,41279
67795,41279
67900,41258
67990,41198
68302,40886
68305,40884
68340,40849
69257,40849
69257,41068
69302,41177
69385,41260
69493,41305
69624,41305
69698,41231
69698,40775
69701,40775
69701,41231
69775,41305
69906,41305
70014,41260
70097,41177
70142,41068
70142,40849
70069,40775
69701,40775
69698,40775
69330,40775
69257,40849
68340,40849
68888,40301
69338,40301
69344,40328
69302,40370
69257,40479
69257,40698
69330,40772
69698,40772
69698,40764
69701,40764
69701,40772
70069,40772
70142,40698
70142,40479
70097,40370
70055,40327
70060,40301
72499,40301
72518,40331
72591,40380
72677,40397
73149,40397
73229,40382
73303,40335
73346,40271
73385,40331
73457,40380
73543,40397
74015,40397
74095,40382
74169,40335
74219,40263
74236,40177
74236,40075
76265,40075
76320,40219
76641,40366
76993,40380
77323,40257
77379,40219
77435,40075
76850,39490
76265,40075
74236,40075
74236,39822
74221,39742
74174,39668
74118,39631
75958,39631
76081,39961
76118,40017
76262,40073
76848,39488
76852,39488
77437,40073
77582,40017
77728,39697
77742,39345
77619,39014
77582,38958
77437,38902
76852,39488
76848,39488
76262,38902
76118,38958
75971,39278
75958,39631
74118,39631
74101,39619
74055,39610
74055,39406
74095,39398
74169,39351
74219,39278
74236,39192
74236,38838
74221,38758
74174,38684
74101,38635
74055,38625
74055,38350
74448,38350
74529,38335
74602,38288
74652,38215
74669,38129
74669,37885
74759,37795
75601,37795
75612,37820
75705,37913
75612,38005
75531,38200
75531,38412
75612,38607
75761,38757
75956,38838
76168,38838
76312,38779
76265,38900
76850,39485
77435,38900
77379,38756
77059,38609
76707,38596
76417,38703
76513,38608
76577,38452
76748,38523
76951,38523
77139,38445
77284,38302
77362,38114
77362,37910
77284,37722
77140,37578
76952,37500
76749,37499
76594,37563
76594,37414
76513,37219
76420,37125
76513,37033
76594,36838
76594,36688
76748,36751
76951,36752
77139,36674
77284,36530
77362,36342
77362,36138
77284,35950
77140,35806
76952,35728
76749,35728
76648,35769
76593,35620
76641,35642
76993,35655
77323,35533
77379,35495
77435,35351
76850,34766
76844,34771
76842,34769
76848,34763
76852,34763
77437,35349
77582,35293
77728,34973
77742,34620
77619,34290
77582,34234
77437,34178
76852,34763
76848,34763
76262,34178
76118,34234
75971,34554
75958,34906
76081,35237
76118,35293
76262,35349
76251,35360
76206,35339
75964,35330
75736,35415
75698,35440
75676,35556
76062,35942
76068,35937
76070,35939
76065,35944
76070,35950
76068,35952
76062,35947
75676,36333
75681,36361
75612,36430
75601,36456
74763,36456
74658,36477
74568,36537
73584,37521
73562,37554
73110,37554
73029,37569
72956,37617
72915,37677
72874,37677
72874,37677
72768,37698
72679,37757
71927,38509
70988,38509
71025,38420
71025,38349
70951,38275
70871,38275
70869,38274
70872,38272
70951,38272
71013,38210
71045,38216
71340,38216
71420,38201
71494,38154
71543,38081
71553,38035
71610,38035
71715,38014
71805,37954
72494,37264
72554,37175
72575,37070
72575,36903
72622,36884
72783,36723
72870,36514
72870,36286
72784,36077
72751,36043
75448,36043
75533,36271
75558,36309
75674,36331
76060,35944
75674,35558
75558,35580
75457,35801
75448,36043
72751,36043
72623,35916
72414,35829
72186,35829
71977,35915
71816,36076
71729,36285
71729,36513
71815,36722
71976,36883
72024,36903
72024,36955
71609,37371
71635,37306
71635,37087
71562,37013
71194,37013
71194,37021
71191,37021
71191,37013
71183,37013
71183,37010
71191,37010
71191,36554
71194,36554
71194,37010
71562,37010
71635,36936
71635,36716
71590,36608
71507,36525
71399,36480
71268,36480
71194,36554
71191,36554
71117,36480
70986,36480
70985,36480
70981,36480
71002,36430
71025,36406
71025,36301
71002,36278
70988,36246
71021,36246
71127,36225
71216,36165
71521,35860
71521,35860
71564,35795
71581,35770
71602,35665
71602,35665
71602,35054
71616,35048
71760,34904
71838,34716
71838,34512
71760,34324
71617,34180
71606,34176
76265,34176
76850,34761
77435,34176
77379,34032
77059,33885
76707,33871
76377,33994
76320,34032
76265,34176
71606,34176
71429,34102
71225,34102
71037,34180
70893,34323
70890,34330
70880,34330
70875,34303
70917,34261
70962,34153
70962,33933
70888,33859
70521,33859
70521,33867
70518,33867
70518,33859
70150,33859
70076,33933
70076,34153
70121,34261
70164,34304
70151,34370
70151,34842
70166,34922
70213,34996
70286,35045
70372,35063
70667,35063
70747,35048
70821,35000
70870,34928
70880,34881
70883,34881
70892,34903
71036,35047
71051,35053
71051,35551
70951,35651
70951,35625
70935,35545
70888,35472
70816,35422
70730,35405
70041,35405
69961,35420
69933,35437
69681,35185
69681,35054
69695,35048
69839,34904
69917,34716
69917,34512
69839,34324
69695,34180
69507,34102
69304,34102
69115,34180
69038,34257
69049,34231
69049,34012
68975,33938
68607,33938
68607,33946
68604,33946
68604,33938
68237,33938
68163,34012
68163,34231
68208,34340
68251,34383
68237,34448
68237,34921
68244,34954
67994,34705
67905,34645
67800,34624
67769,34624
67769,34507
67757,34441
67799,34399
67844,34291
67844,34071
67770,33997
67403,33997
67403,34005
67400,34005
67400,33997
67032,33997
66958,34071
66958,34291
67003,34399
67046,34442
67033,34507
67033,34624
65903,34624
65884,34577
65723,34416
65514,34329
65286,34329
65077,34415
64916,34576
64829,34785
64829,35013
64915,35222
65076,35383
65209,35438
64450,35438
63348,34336
63259,34276
63153,34255
62146,34255
62078,34154
62171,34116
62254,34033
62299,33924
62299,33701
66958,33701
66958,33920
67032,33994
67400,33994
67400,33538
67403,33538
67403,33994
67770,33994
67844,33920
67844,33701
67820,33642
68163,33642
68163,33861
68237,33935
68604,33935
68604,33479
68607,33479
68607,33935
68975,33935
69049,33861
69049,33642
69016,33563
70076,33563
70076,33782
70150,33856
70518,33856
70518,33400
70521,33400
70521,33856
70888,33856
70962,33782
70962,33563
70917,33454
70834,33371
70726,33326
70595,33326
70521,33400
70518,33400
70444,33326
70313,33326
70204,33371
70121,33454
70076,33563
69016,33563
69004,33533
68921,33450
68812,33405
68681,33405
68607,33479
68604,33479
68530,33405
68399,33405
68291,33450
68208,33533
68163,33642
67820,33642
67799,33592
67716,33509
67607,33464
67476,33464
67403,33538
67400,33538
67326,33464
67195,33464
67086,33509
67003,33592
66958,33701
62299,33701
62299,33606
62225,33533
61670,33533
61670,33540
61667,33540
61667,33533
61113,33533
61039,33606
60167,33606
60167,33138
61039,33138
61039,33456
61113,33529
61667,33529
61667,32975
61670,32975
61670,33529
62225,33529
62299,33456
62299,33138
62254,33029
62171,32946
62062,32901
61744,32901
61670,32975
61667,32975
61593,32901
61275,32901
61167,32946
61084,33029
61039,33138
60167,33138
60167,32765
78494,32765
78494,41328
" /> 
<polyline style="fill-rule:evenodd;"
points="69115,35047
69129,35053
69129,35299
69150,35404
69210,35494
69625,35909
69715,35969
69785,35983
69746,36079
69746,36150
69806,36211
69791,36226
69769,36278
69746,36301
69746,36406
69769,36430
69791,36482
69806,36497
69746,36557
69746,36629
69791,36738
69791,36738
69791,36738
69746,36846
69746,36918
69806,36978
69791,36994
69769,37046
69746,37069
69746,37174
69769,37198
69791,37249
69791,37250
69791,37250
69769,37301
69746,37325
69746,37430
69769,37453
69791,37505
69806,37521
69746,37581
69746,37653
69791,37761
69820,37791
69820,37850
69828,37891
69820,37929
69820,37988
69791,38017
69746,38126
69746,38198
69819,38272
69859,38272
69845,38274
69844,38275
69819,38275
69769,38325
69755,38334
69755,38334
69509,38580
69450,38670
69450,38670
69429,38775
69429,39611
69398,39631
69348,39703
69339,39750
68774,39750
68668,39771
68579,39831
68052,40357
68070,40314
68070,40086
67984,39877
67823,39716
67614,39629
67386,39629
67177,39715
67035,39857
66990,39857
66982,39816
66935,39742
66871,39699
66931,39661
66980,39589
66997,39503
66997,39307
67082,39307
67120,39333
67206,39350
67895,39350
67975,39335
68049,39288
68099,39215
68116,39129
68116,38952
68108,38911
68116,38874
68116,38696
68108,38656
68116,38618
68116,38440
68108,38400
68116,38362
68116,38185
68108,38144
68116,38106
68116,37929
68108,37888
68116,37850
68116,37673
68108,37632
68116,37594
68116,37535
68145,37505
68190,37397
68190,37325
68117,37251
68036,37251
68034,37250
68037,37248
68117,37248
68190,37174
68190,37102
68145,36994
68116,36964
68116,36905
68108,36864
68116,36826
68116,36757
68217,36757
68323,36736
68412,36677
68494,36594
68494,36594
68529,36543
68554,36505
68575,36400
68575,36399
68575,35400
68554,35294
68494,35205
68424,35135
68458,35142
68753,35142
68834,35126
68907,35079
68957,35007
68966,34960
69028,34960
69115,35047
" /> 
<polyline style="fill-rule:evenodd;"
points="70387,37259
70384,37259
70384,37240
70387,37240
70387,37259
" /> 
</g>
<g style="fill:#FFFFFF; fill-opacity:1.0; 
stroke:#FFFFFF; stroke-width:196.85; stroke-opacity:1; 
stroke-linecap:round; stroke-linejoin:round;">
</g>
<g style="fill:#FFFFFF; fill-opacity:1.0; 
stroke:#FFFFFF; stroke-width:0; stroke-opacity:1; 
stroke-linecap:round; stroke-linejoin:round;">
<circle cx="65500" cy="40400" r="68.8976" /> 
</g>
<g style="fill:#FFFFFF; fill-opacity:1.0; 
stroke:#FFFFFF; stroke-width:39.3701; stroke-opacity:1; 
stroke-linecap:round; stroke-linejoin:round;">
</g>
<g style="fill:#FFFFFF; fill-opacity:1.0; 
stroke:#FFFFFF; stroke-width:0; stroke-opacity:1; 
stroke-linecap:round; stroke-linejoin:round;">
<circle cx="65400" cy="34900" r="68.8976" /> 
</g>
<g style="fill:#FFFFFF; fill-opacity:1.0; 
stroke:#FFFFFF; stroke-width:39.3701; stroke-opacity:1; 
stroke-linecap:round; stroke-linejoin:round;">
</g>
<g style="fill:#FFFFFF; fill-opacity:1.0; 
stroke:#FFFFFF; stroke-width:0; stroke-opacity:1; 
stroke-linecap:round; stroke-linejoin:round;">
<circle cx="67500" cy="40200" r="68.8976" /> 
</g>
<g style="fill:#FFFFFF; fill-opacity:1.0; 
stroke:#FFFFFF; stroke-width:39.3701; stroke-opacity:1; 
stroke-linecap:round; stroke-linejoin:round;">
</g>
<g style="fill:#FFFFFF; fill-opacity:1.0; 
stroke:#FFFFFF; stroke-width:0; stroke-opacity:1; 
stroke-linecap:round; stroke-linejoin:round;">
<circle cx="72300" cy="36400" r="68.8976" /> 
</g>
<g style="fill:#FFFFFF; fill-opacity:1.0; 
stroke:#FFFFFF; stroke-width:39.3701; stroke-opacity:1; 
stroke-linecap:round; stroke-linejoin:round;">
</g>
<g style="fill:#FFFFFF; fill-opacity:1.0; 
stroke:#FFFFFF; stroke-width:0; stroke-opacity:1; 
stroke-linecap:round; stroke-linejoin:round;">
<circle cx="61669.3" cy="33531.5" r="68.8976" /> 
</g>
<g style="fill:#FFFFFF; fill-opacity:1.0; 
stroke:#FFFFFF; stroke-width:39.3701; stroke-opacity:1; 
stroke-linecap:round; stroke-linejoin:round;">
</g>
<g style="fill:#FFFFFF; fill-opacity:1.0; 
stroke:#FFFFFF; stroke-width:0; stroke-opacity:1; 
stroke-linecap:round; stroke-linejoin:round;">
<circle cx="61669.3" cy="34531.5" r="68.8976" /> 
</g>
<g style="fill:#FFFFFF; fill-opacity:1.0; 
stroke:#FFFFFF; stroke-width:39.3701; stroke-opacity:1; 
stroke-linecap:round; stroke-linejoin:round;">
</g>
<g style="fill:#FFFFFF; fill-opacity:1.0; 
stroke:#FFFFFF; stroke-width:0; stroke-opacity:1; 
stroke-linecap:round; stroke-linejoin:round;">
<circle cx="61669.3" cy="35531.5" r="68.8976" /> 
</g>
<g style="fill:#FFFFFF; fill-opacity:1.0; 
stroke:#FFFFFF; stroke-width:39.3701; stroke-opacity:1; 
stroke-linecap:round; stroke-linejoin:round;">
</g>
<g style="fill:#FFFFFF; fill-opacity:1.0; 
stroke:#FFFFFF; stroke-width:0; stroke-opacity:1; 
stroke-linecap:round; stroke-linejoin:round;">
<circle cx="61669.3" cy="36531.5" r="68.8976" /> 
</g>
<g style="fill:#FFFFFF; fill-opacity:1.0; 
stroke:#FFFFFF; stroke-width:39.3701; stroke-opacity:1; 
stroke-linecap:round; stroke-linejoin:round;">
</g>
<g style="fill:#FFFFFF; fill-opacity:1.0; 
stroke:#FFFFFF; stroke-width:0; stroke-opacity:1; 
stroke-linecap:round; stroke-linejoin:round;">
<circle cx="61669.3" cy="37531.5" r="68.8976" /> 
</g>
<g style="fill:#FFFFFF; fill-opacity:1.0; 
stroke:#FFFFFF; stroke-width:39.3701; stroke-opacity:1; 
stroke-linecap:round; stroke-linejoin:round;">
</g>
<g style="fill:#FFFFFF; fill-opacity:1.0; 
stroke:#FFFFFF; stroke-width:0; stroke-opacity:1; 
stroke-linecap:round; stroke-linejoin:round;">
<circle cx="61669.3" cy="38531.5" r="68.8976" /> 
</g>
<g style="fill:#FFFFFF; fill-opacity:1.0; 
stroke:#FFFFFF; stroke-width:39.3701; stroke-opacity:1; 
stroke-linecap:round; stroke-linejoin:round;">
</g>
<g style="fill:#FFFFFF; fill-opacity:1.0; 
stroke:#FFFFFF; stroke-width:0; stroke-opacity:1; 
stroke-linecap:round; stroke-linejoin:round;">
<circle cx="61669.3" cy="39531.5" r="68.8976" /> 
</g>
<g style="fill:#FFFFFF; fill-opacity:1.0; 
stroke:#FFFFFF; stroke-width:39.3701; stroke-opacity:1; 
stroke-linecap:round; stroke-linejoin:round;">
</g>
<g style="fill:#FFFFFF; fill-opacity:1.0; 
stroke:#FFFFFF; stroke-width:0; stroke-opacity:1; 
stroke-linecap:round; stroke-linejoin:round;">
<circle cx="61669.3" cy="40531.5" r="68.8976" /> 
</g>
<g style="fill:#FFFFFF; fill-opacity:1.0; 
stroke:#FFFFFF; stroke-width:39.3701; stroke-opacity:1; 
stroke-linecap:round; stroke-linejoin:round;">
</g>
<g style="fill:#FFFFFF; fill-opacity:1.0; 
stroke:#FFFFFF; stroke-width:0; stroke-opacity:1; 
stroke-linecap:round; stroke-linejoin:round;">
<circle cx="69405.5" cy="34614.2" r="68.8976" /> 
</g>
<g style="fill:#FFFFFF; fill-opacity:1.0; 
stroke:#FFFFFF; stroke-width:39.3701; stroke-opacity:1; 
stroke-linecap:round; stroke-linejoin:round;">
</g>
<g style="fill:#FFFFFF; fill-opacity:1.0; 
stroke:#FFFFFF; stroke-width:0; stroke-opacity:1; 
stroke-linecap:round; stroke-linejoin:round;">
<circle cx="71326.8" cy="34614.2" r="68.8976" /> 
</g>
<g style="fill:#FFFFFF; fill-opacity:1.0; 
stroke:#FFFFFF; stroke-width:39.3701; stroke-opacity:1; 
stroke-linecap:round; stroke-linejoin:round;">
</g>
<g style="fill:#FFFFFF; fill-opacity:1.0; 
stroke:#FFFFFF; stroke-width:0; stroke-opacity:1; 
stroke-linecap:round; stroke-linejoin:round;">
<circle cx="63992.1" cy="37755.9" r="68.8976" /> 
</g>
<g style="fill:#FFFFFF; fill-opacity:1.0; 
stroke:#FFFFFF; stroke-width:39.3701; stroke-opacity:1; 
stroke-linecap:round; stroke-linejoin:round;">
</g>
<g style="fill:#FFFFFF; fill-opacity:1.0; 
stroke:#FFFFFF; stroke-width:0; stroke-opacity:1; 
stroke-linecap:round; stroke-linejoin:round;">
<circle cx="63779.5" cy="39055.1" r="68.8976" /> 
</g>
<g style="fill:#FFFFFF; fill-opacity:1.0; 
stroke:#FFFFFF; stroke-width:39.3701; stroke-opacity:1; 
stroke-linecap:round; stroke-linejoin:round;">
</g>
<g style="fill:#FFFFFF; fill-opacity:1.0; 
stroke:#FFFFFF; stroke-width:0; stroke-opacity:1; 
stroke-linecap:round; stroke-linejoin:round;">
<circle cx="64779.5" cy="39055.1" r="68.8976" /> 
</g>
<g style="fill:#FFFFFF; fill-opacity:1.0; 
stroke:#FFFFFF; stroke-width:39.3701; stroke-opacity:1; 
stroke-linecap:round; stroke-linejoin:round;">
</g>
<g style="fill:#FFFFFF; fill-opacity:1.0; 
stroke:#FFFFFF; stroke-width:0; stroke-opacity:1; 
stroke-linecap:round; stroke-linejoin:round;">
<circle cx="62992.1" cy="37755.9" r="68.8976" /> 
</g>
<g style="fill:#FFFFFF; fill-opacity:1.0; 
stroke:#FFFFFF; stroke-width:39.3701; stroke-opacity:1; 
stroke-linecap:round; stroke-linejoin:round;">
</g>
<g style="fill:#FFFFFF; fill-opacity:1.0; 
stroke:#FFFFFF; stroke-width:0; stroke-opacity:1; 
stroke-linecap:round; stroke-linejoin:round;">
<circle cx="63189" cy="40511.8" r="68.8976" /> 
</g>
<g style="fill:#FFFFFF; fill-opacity:1.0; 
stroke:#FFFFFF; stroke-width:39.3701; stroke-opacity:1; 
stroke-linecap:round; stroke-linejoin:round;">
</g>
<g style="fill:#FFFFFF; fill-opacity:1.0; 
stroke:#FFFFFF; stroke-width:0; stroke-opacity:1; 
stroke-linecap:round; stroke-linejoin:round;">
<circle cx="64189" cy="40511.8" r="68.8976" /> 
</g>
<g style="fill:#FFFFFF; fill-opacity:1.0; 
stroke:#FFFFFF; stroke-width:39.3701; stroke-opacity:1; 
stroke-linecap:round; stroke-linejoin:round;">
</g>
<g style="fill:#FFFFFF; fill-opacity:1.0; 
stroke:#FFFFFF; stroke-width:0; stroke-opacity:1; 
stroke-linecap:round; stroke-linejoin:round;">
<circle cx="76850.4" cy="38011.8" r="68.8976" /> 
</g>
<g style="fill:#FFFFFF; fill-opacity:1.0; 
stroke:#FFFFFF; stroke-width:39.3701; stroke-opacity:1; 
stroke-linecap:round; stroke-linejoin:round;">
</g>
<g style="fill:#FFFFFF; fill-opacity:1.0; 
stroke:#FFFFFF; stroke-width:0; stroke-opacity:1; 
stroke-linecap:round; stroke-linejoin:round;">
<circle cx="76063" cy="36732.3" r="68.8976" /> 
</g>
<g style="fill:#FFFFFF; fill-opacity:1.0; 
stroke:#FFFFFF; stroke-width:39.3701; stroke-opacity:1; 
stroke-linecap:round; stroke-linejoin:round;">
</g>
<g style="fill:#FFFFFF; fill-opacity:1.0; 
stroke:#FFFFFF; stroke-width:0; stroke-opacity:1; 
stroke-linecap:round; stroke-linejoin:round;">
<circle cx="76063" cy="37519.7" r="68.8976" /> 
</g>
<g style="fill:#FFFFFF; fill-opacity:1.0; 
stroke:#FFFFFF; stroke-width:39.3701; stroke-opacity:1; 
stroke-linecap:round; stroke-linejoin:round;">
</g>
<g style="fill:#FFFFFF; fill-opacity:1.0; 
stroke:#FFFFFF; stroke-width:0; stroke-opacity:1; 
stroke-linecap:round; stroke-linejoin:round;">
<circle cx="76063" cy="35944.9" r="68.8976" /> 
</g>
<g style="fill:#FFFFFF; fill-opacity:1.0; 
stroke:#FFFFFF; stroke-width:39.3701; stroke-opacity:1; 
stroke-linecap:round; stroke-linejoin:round;">
</g>
<g style="fill:#FFFFFF; fill-opacity:1.0; 
stroke:#FFFFFF; stroke-width:0; stroke-opacity:1; 
stroke-linecap:round; stroke-linejoin:round;">
<circle cx="76063" cy="38307.1" r="68.8976" /> 
</g>
<g style="fill:#FFFFFF; fill-opacity:1.0; 
stroke:#FFFFFF; stroke-width:39.3701; stroke-opacity:1; 
stroke-linecap:round; stroke-linejoin:round;">
</g>
<g style="fill:#FFFFFF; fill-opacity:1.0; 
stroke:#FFFFFF; stroke-width:0; stroke-opacity:1; 
stroke-linecap:round; stroke-linejoin:round;">
<circle cx="76850.4" cy="34763.8" r="68.8976" /> 
</g>
<g style="fill:#FFFFFF; fill-opacity:1.0; 
stroke:#FFFFFF; stroke-width:39.3701; stroke-opacity:1; 
stroke-linecap:round; stroke-linejoin:round;">
</g>
<g style="fill:#FFFFFF; fill-opacity:1.0; 
stroke:#FFFFFF; stroke-width:0; stroke-opacity:1; 
stroke-linecap:round; stroke-linejoin:round;">
<circle cx="76850.4" cy="39488.2" r="68.8976" /> 
</g>
<g style="fill:#FFFFFF; fill-opacity:1.0; 
stroke:#FFFFFF; stroke-width:39.3701; stroke-opacity:1; 
stroke-linecap:round; stroke-linejoin:round;">
</g>
<g style="fill:#FFFFFF; fill-opacity:1.0; 
stroke:#FFFFFF; stroke-width:0; stroke-opacity:1; 
stroke-linecap:round; stroke-linejoin:round;">
<circle cx="76850.4" cy="36240.2" r="68.8976" /> 
</g>
<g style="fill:#FFFFFF; fill-opacity:1.0; 
stroke:#FFFFFF; stroke-width:39.3701; stroke-opacity:1; 
stroke-linecap:round; stroke-linejoin:round;">
</g>
<g style="fill:#000000; fill-opacity:1.0; 
stroke:#000000; stroke-width:39.3701; stroke-opacity:1; 
stroke-linecap:round; stroke-linejoin:round;">
</g> 
</svg>
