<?xml version="1.0" standalone="no"?>
 <!DOCTYPE svg PUBLIC "-//W3C//DTD SVG 1.1//EN" 
 "http://www.w3.org/Graphics/SVG/1.1/DTD/svg11.dtd"> 
<svg xmlns="http://www.w3.org/2000/svg" version="1.1" 
    width="29.7002cm" height="21.0007cm" viewBox="0 0 116930 82680 ">
<title>SVG Picture created as uartusb-B.Cu.svg date 2017/09/06 10:17:36 </title>
  <desc>Picture generated by PCBNEW </desc>
<g style="fill:#000000; fill-opacity:1;stroke:#000000; stroke-opacity:1;
stroke-linecap:round; stroke-linejoin:round; "
 transform="translate(0 0) scale(1 1)">
</g>
<g style="fill:#000000; fill-opacity:0.0; 
stroke:#000000; stroke-width:-0.000393701; stroke-opacity:1; 
stroke-linecap:round; stroke-linejoin:round;">
</g>
<g style="fill:#000000; fill-opacity:0.0; 
stroke:#000000; stroke-width:0; stroke-opacity:1; 
stroke-linecap:round; stroke-linejoin:round;">
</g>
<g style="fill:#000000; fill-opacity:1.0; 
stroke:#000000; stroke-width:0; stroke-opacity:1; 
stroke-linecap:round; stroke-linejoin:round;">
<polyline style="fill-rule:evenodd;"
points="75216,39685
74704,39685
74704,39094
75216,39094
75216,39685
" /> 
<polyline style="fill-rule:evenodd;"
points="75216,38622
74704,38622
74704,38031
75216,38031
75216,38622
" /> 
<polyline style="fill-rule:evenodd;"
points="62003,33196
62003,33866
61334,33866
61334,33196
62003,33196
" /> 
</g>
<g style="fill:#000000; fill-opacity:1.0; 
stroke:#000000; stroke-width:669.291; stroke-opacity:1; 
stroke-linecap:round; stroke-linejoin:round;">
</g>
<g style="fill:#000000; fill-opacity:0.0; 
stroke:#000000; stroke-width:669.291; stroke-opacity:1; 
stroke-linecap:round; stroke-linejoin:round;">
<path d="M61669 34531
L61669 34531
" />
<path d="M61669 35531
L61669 35531
" />
<path d="M61669 36531
L61669 36531
" />
<path d="M61669 37531
L61669 37531
" />
<path d="M61669 38531
L61669 38531
" />
<path d="M61669 39531
L61669 39531
" />
<path d="M61669 40531
L61669 40531
" />
</g>
<g style="fill:#000000; fill-opacity:0.0; 
stroke:#000000; stroke-width:0; stroke-opacity:1; 
stroke-linecap:round; stroke-linejoin:round;">
</g>
<g style="fill:#000000; fill-opacity:1.0; 
stroke:#000000; stroke-width:0; stroke-opacity:1; 
stroke-linecap:round; stroke-linejoin:round;">
<polyline style="fill-rule:evenodd;"
points="74192,35236
74547,35236
74547,35708
74192,35708
74192,35236
" /> 
<polyline style="fill-rule:evenodd;"
points="74192,36102
74547,36102
74547,36574
74192,36574
74192,36102
" /> 
<polyline style="fill-rule:evenodd;"
points="65000,36988
65000,36633
65472,36633
65472,36988
65000,36988
" /> 
<polyline style="fill-rule:evenodd;"
points="65866,36988
65866,36633
66338,36633
66338,36988
65866,36988
" /> 
<polyline style="fill-rule:evenodd;"
points="65000,36200
65000,35846
65472,35846
65472,36200
65000,36200
" /> 
<polyline style="fill-rule:evenodd;"
points="65866,36200
65866,35846
66338,35846
66338,36200
65866,36200
" /> 
<polyline style="fill-rule:evenodd;"
points="73523,33503
73877,33503
73877,33976
73523,33976
73523,33503
" /> 
<polyline style="fill-rule:evenodd;"
points="73523,34370
73877,34370
73877,34842
73523,34842
73523,34370
" /> 
<polyline style="fill-rule:evenodd;"
points="62730,36977
62730,36622
63203,36622
63203,36977
62730,36977
" /> 
<polyline style="fill-rule:evenodd;"
points="63596,36977
63596,36622
64069,36622
64069,36977
63596,36977
" /> 
<polyline style="fill-rule:evenodd;"
points="62716,36200
62716,35846
63188,35846
63188,36200
62716,36200
" /> 
<polyline style="fill-rule:evenodd;"
points="63582,36200
63582,35846
64055,35846
64055,36200
63582,36200
" /> 
<circle cx="69405.5" cy="34614.2" r="295.276" /> 
</g>
<g style="fill:#000000; fill-opacity:1.0; 
stroke:#000000; stroke-width:39.3701; stroke-opacity:1; 
stroke-linecap:round; stroke-linejoin:round;">
</g>
<g style="fill:#000000; fill-opacity:1.0; 
stroke:#000000; stroke-width:0; stroke-opacity:1; 
stroke-linecap:round; stroke-linejoin:round;">
<circle cx="71326.8" cy="34614.2" r="295.276" /> 
</g>
<g style="fill:#000000; fill-opacity:1.0; 
stroke:#000000; stroke-width:39.3701; stroke-opacity:1; 
stroke-linecap:round; stroke-linejoin:round;">
</g>
<g style="fill:#000000; fill-opacity:1.0; 
stroke:#000000; stroke-width:0; stroke-opacity:1; 
stroke-linecap:round; stroke-linejoin:round;">
<circle cx="63992.1" cy="37755.9" r="393.701" /> 
</g>
<g style="fill:#000000; fill-opacity:1.0; 
stroke:#000000; stroke-width:39.3701; stroke-opacity:1; 
stroke-linecap:round; stroke-linejoin:round;">
</g>
<g style="fill:#000000; fill-opacity:1.0; 
stroke:#000000; stroke-width:0; stroke-opacity:1; 
stroke-linecap:round; stroke-linejoin:round;">
<circle cx="63779.5" cy="39055.1" r="393.701" /> 
</g>
<g style="fill:#000000; fill-opacity:1.0; 
stroke:#000000; stroke-width:39.3701; stroke-opacity:1; 
stroke-linecap:round; stroke-linejoin:round;">
</g>
<g style="fill:#000000; fill-opacity:1.0; 
stroke:#000000; stroke-width:0; stroke-opacity:1; 
stroke-linecap:round; stroke-linejoin:round;">
<circle cx="64779.5" cy="39055.1" r="393.701" /> 
</g>
<g style="fill:#000000; fill-opacity:1.0; 
stroke:#000000; stroke-width:39.3701; stroke-opacity:1; 
stroke-linecap:round; stroke-linejoin:round;">
</g>
<g style="fill:#000000; fill-opacity:1.0; 
stroke:#000000; stroke-width:0; stroke-opacity:1; 
stroke-linecap:round; stroke-linejoin:round;">
<circle cx="62992.1" cy="37755.9" r="393.701" /> 
</g>
<g style="fill:#000000; fill-opacity:1.0; 
stroke:#000000; stroke-width:39.3701; stroke-opacity:1; 
stroke-linecap:round; stroke-linejoin:round;">
</g>
<g style="fill:#000000; fill-opacity:1.0; 
stroke:#000000; stroke-width:0; stroke-opacity:1; 
stroke-linecap:round; stroke-linejoin:round;">
<polyline style="fill-rule:evenodd;"
points="62854,40177
63523,40177
63523,40846
62854,40846
62854,40177
" /> 
</g>
<g style="fill:#000000; fill-opacity:1.0; 
stroke:#000000; stroke-width:669.291; stroke-opacity:1; 
stroke-linecap:round; stroke-linejoin:round;">
</g>
<g style="fill:#000000; fill-opacity:0.0; 
stroke:#000000; stroke-width:669.291; stroke-opacity:1; 
stroke-linecap:round; stroke-linejoin:round;">
<path d="M64188 40511
L64188 40511
" />
</g>
<g style="fill:#000000; fill-opacity:1.0; 
stroke:#000000; stroke-width:0; stroke-opacity:1; 
stroke-linecap:round; stroke-linejoin:round;">
<circle cx="76850.4" cy="38011.8" r="295.276" /> 
</g>
<g style="fill:#000000; fill-opacity:1.0; 
stroke:#000000; stroke-width:39.3701; stroke-opacity:1; 
stroke-linecap:round; stroke-linejoin:round;">
</g>
<g style="fill:#000000; fill-opacity:1.0; 
stroke:#000000; stroke-width:0; stroke-opacity:1; 
stroke-linecap:round; stroke-linejoin:round;">
<circle cx="76063" cy="36732.3" r="314.961" /> 
</g>
<g style="fill:#000000; fill-opacity:1.0; 
stroke:#000000; stroke-width:39.3701; stroke-opacity:1; 
stroke-linecap:round; stroke-linejoin:round;">
</g>
<g style="fill:#000000; fill-opacity:1.0; 
stroke:#000000; stroke-width:0; stroke-opacity:1; 
stroke-linecap:round; stroke-linejoin:round;">
<circle cx="76063" cy="37519.7" r="314.961" /> 
</g>
<g style="fill:#000000; fill-opacity:1.0; 
stroke:#000000; stroke-width:39.3701; stroke-opacity:1; 
stroke-linecap:round; stroke-linejoin:round;">
</g>
<g style="fill:#000000; fill-opacity:1.0; 
stroke:#000000; stroke-width:0; stroke-opacity:1; 
stroke-linecap:round; stroke-linejoin:round;">
<circle cx="76063" cy="35944.9" r="314.961" /> 
</g>
<g style="fill:#000000; fill-opacity:1.0; 
stroke:#000000; stroke-width:39.3701; stroke-opacity:1; 
stroke-linecap:round; stroke-linejoin:round;">
</g>
<g style="fill:#000000; fill-opacity:1.0; 
stroke:#000000; stroke-width:0; stroke-opacity:1; 
stroke-linecap:round; stroke-linejoin:round;">
<circle cx="76063" cy="38307.1" r="314.961" /> 
</g>
<g style="fill:#000000; fill-opacity:1.0; 
stroke:#000000; stroke-width:39.3701; stroke-opacity:1; 
stroke-linecap:round; stroke-linejoin:round;">
</g>
<g style="fill:#000000; fill-opacity:1.0; 
stroke:#000000; stroke-width:0; stroke-opacity:1; 
stroke-linecap:round; stroke-linejoin:round;">
<circle cx="76850.4" cy="34763.8" r="590.551" /> 
</g>
<g style="fill:#000000; fill-opacity:1.0; 
stroke:#000000; stroke-width:39.3701; stroke-opacity:1; 
stroke-linecap:round; stroke-linejoin:round;">
</g>
<g style="fill:#000000; fill-opacity:1.0; 
stroke:#000000; stroke-width:0; stroke-opacity:1; 
stroke-linecap:round; stroke-linejoin:round;">
<circle cx="76850.4" cy="39488.2" r="590.551" /> 
</g>
<g style="fill:#000000; fill-opacity:1.0; 
stroke:#000000; stroke-width:39.3701; stroke-opacity:1; 
stroke-linecap:round; stroke-linejoin:round;">
</g>
<g style="fill:#000000; fill-opacity:1.0; 
stroke:#000000; stroke-width:0; stroke-opacity:1; 
stroke-linecap:round; stroke-linejoin:round;">
<circle cx="76850.4" cy="36240.2" r="295.276" /> 
</g>
<g style="fill:#000000; fill-opacity:1.0; 
stroke:#000000; stroke-width:39.3701; stroke-opacity:1; 
stroke-linecap:round; stroke-linejoin:round;">
</g>
<g style="fill:#000000; fill-opacity:1.0; 
stroke:#000000; stroke-width:0; stroke-opacity:1; 
stroke-linecap:round; stroke-linejoin:round;">
<circle cx="65500" cy="40400" r="354.331" /> 
</g>
<g style="fill:#000000; fill-opacity:1.0; 
stroke:#000000; stroke-width:39.3701; stroke-opacity:1; 
stroke-linecap:round; stroke-linejoin:round;">
</g>
<g style="fill:#000000; fill-opacity:1.0; 
stroke:#000000; stroke-width:0; stroke-opacity:1; 
stroke-linecap:round; stroke-linejoin:round;">
<circle cx="65400" cy="34900" r="354.331" /> 
</g>
<g style="fill:#000000; fill-opacity:1.0; 
stroke:#000000; stroke-width:39.3701; stroke-opacity:1; 
stroke-linecap:round; stroke-linejoin:round;">
</g>
<g style="fill:#000000; fill-opacity:1.0; 
stroke:#000000; stroke-width:0; stroke-opacity:1; 
stroke-linecap:round; stroke-linejoin:round;">
<circle cx="67500" cy="40200" r="354.331" /> 
</g>
<g style="fill:#000000; fill-opacity:1.0; 
stroke:#000000; stroke-width:39.3701; stroke-opacity:1; 
stroke-linecap:round; stroke-linejoin:round;">
</g>
<g style="fill:#000000; fill-opacity:1.0; 
stroke:#000000; stroke-width:0; stroke-opacity:1; 
stroke-linecap:round; stroke-linejoin:round;">
<circle cx="72300" cy="36400" r="354.331" /> 
</g>
<g style="fill:#000000; fill-opacity:1.0; 
stroke:#000000; stroke-width:39.3701; stroke-opacity:1; 
stroke-linecap:round; stroke-linejoin:round;">
</g>
<g style="fill:#000000; fill-opacity:1.0; 
stroke:#000000; stroke-width:118.11; stroke-opacity:1; 
stroke-linecap:round; stroke-linejoin:round;">
</g>
<g style="fill:#000000; fill-opacity:0.0; 
stroke:#000000; stroke-width:118.11; stroke-opacity:1; 
stroke-linecap:round; stroke-linejoin:round;">
<path d="M64188 40389
L64188 40511
" />
<path d="M65400 34900
L65569 34900
" />
<path d="M65569 34900
L66102 35433
" />
<path d="M66102 35433
L66102 36023
" />
<path d="M66102 36811
L66102 39797
" />
<path d="M66102 39797
L65500 40400
" />
<path d="M66102 36023
L66102 36811
" />
<path d="M75078 38326
L74226 38326
" />
<path d="M74226 38326
L72300 36400
" />
<path d="M76062 38307
L75098 38307
" />
<path d="M75098 38307
L75078 38326
" />
<path d="M74399 36397
L72302 36397
" />
<path d="M72302 36397
L72300 36400
" />
<path d="M67500 40200
L71300 36400
" />
<path d="M71300 36400
L72300 36400
" />
<path d="M63169 40531
L63188 40511
" />
</g>
<g style="fill:#000000; fill-opacity:0.0; 
stroke:#000000; stroke-width:98.4252; stroke-opacity:1; 
stroke-linecap:round; stroke-linejoin:round;">
<path d="M62966 36800
L62924 36800
" />
</g>
<g style="fill:#000000; fill-opacity:0.0; 
stroke:#000000; stroke-width:118.11; stroke-opacity:1; 
stroke-linecap:round; stroke-linejoin:round;">
<path d="M62924 36800
L62192 37531
" />
<path d="M62192 37531
L61669 37531
" />
<path d="M62952 36023
L62952 35078
" />
<path d="M62405 34531
L61669 34531
" />
<path d="M62952 35078
L62405 34531
" />
<path d="M74370 35472
L73700 34606
" />
<path d="M63833 36800
L65236 36811
" />
<path d="M63818 36023
L65236 36023
" />
</g>
<g style="fill:#000000; fill-opacity:1.0; 
stroke:#000000; stroke-width:196.85; stroke-opacity:1; 
stroke-linecap:round; stroke-linejoin:round;">
<polyline style="fill-rule:evenodd;"
points="78494,41328
60167,41328
60167,33607
61036,33607
61036,33925
61081,34035
61165,34119
61258,34157
61149,34320
61107,34531
61149,34742
61268,34921
61433,35031
61268,35141
61149,35320
61107,35531
61149,35742
61268,35921
61433,36031
61268,36141
61149,36320
61107,36531
61149,36742
61268,36921
61433,37031
61268,37141
61149,37320
61107,37531
61149,37742
61268,37921
61433,38031
61268,38141
61149,38320
61107,38531
61149,38742
61268,38921
61433,39031
61268,39141
61149,39320
61107,39531
61149,39742
61268,39921
61433,40031
61268,40141
61149,40320
61107,40531
61149,40742
61268,40921
61447,41040
61658,41082
61680,41082
61891,41040
62069,40921
62189,40742
62231,40531
62189,40320
62093,40177
62633,40177
62633,40846
62648,40926
62696,41000
62768,41049
62854,41067
63523,41067
63603,41052
63677,41004
63727,40932
63744,40846
63744,40830
63799,40912
63978,41031
64188,41073
64399,41031
64578,40912
64698,40733
64740,40522
64740,40501
64698,40290
64578,40111
64399,39991
64188,39949
63978,39991
63799,40111
63744,40193
63744,40177
63729,40096
63681,40023
63609,39973
63523,39956
62854,39956
62774,39971
62700,40018
62650,40091
62633,40177
62093,40177
62069,40141
61904,40031
62069,39921
62189,39742
62231,39531
62189,39320
62092,39175
63169,39175
63261,39400
63433,39572
63657,39665
63900,39665
64124,39572
64279,39418
64433,39572
64657,39665
64900,39665
65124,39572
65296,39401
65389,39177
65389,38934
65297,38709
65125,38538
64901,38444
64658,38444
64434,38537
64279,38692
64125,38538
63901,38444
63658,38444
63434,38537
63262,38708
63169,38933
63169,39175
62092,39175
62069,39141
61904,39031
62069,38921
62189,38742
62231,38531
62189,38320
62069,38141
61904,38031
62069,37921
62146,37807
62192,37807
62298,37786
62381,37730
62381,37876
62474,38101
62646,38272
62870,38366
63112,38366
63337,38273
63492,38118
63646,38272
63870,38366
64112,38366
64337,38273
64509,38102
64602,37877
64602,37635
64509,37410
64338,37238
64170,37169
64223,37135
64261,37078
64803,37083
64841,37142
64914,37191
65000,37208
65472,37208
65552,37193
65626,37146
65669,37082
65707,37142
65780,37191
65826,37200
65826,39683
65661,39848
65614,39829
65386,39829
65177,39915
65016,40076
64929,40285
64929,40513
65015,40722
65176,40883
65385,40970
65613,40970
65822,40884
65983,40723
66070,40514
66070,40313
66929,40313
67015,40522
67176,40683
67385,40770
67613,40770
67822,40684
67983,40523
68070,40314
68070,40086
68067,40077
76263,40077
76318,40222
76640,40369
76993,40383
77325,40260
77381,40222
77437,40077
76850,39490
76263,40077
68067,40077
68051,40038
68623,39465
74406,39465
74406,39744
74451,39854
74535,39938
74645,39983
74884,39983
74959,39908
74959,39391
74962,39391
74962,39908
75036,39983
75275,39983
75385,39938
75469,39854
75514,39744
75514,39631
75955,39631
76078,39963
76116,40019
76261,40075
76848,39488
76852,39488
77439,40075
77584,40019
77732,39698
77745,39344
77622,39013
77584,38956
77439,38901
76852,39488
76848,39488
76261,38901
76116,38956
75968,39278
75955,39631
75514,39631
75514,39465
75440,39391
74962,39391
74959,39391
74480,39391
74406,39465
68623,39465
71414,36675
71796,36675
71815,36722
71976,36883
72185,36970
72413,36970
72461,36951
74031,38521
74121,38581
74226,38602
74483,38602
74483,38622
74499,38702
74546,38775
74602,38813
74535,38841
74451,38925
74406,39035
74406,39313
74480,39388
74959,39388
74959,39380
74962,39380
74962,39388
75440,39388
75514,39313
75514,39035
75469,38925
75385,38841
75318,38813
75370,38780
75419,38707
75437,38622
75437,38582
75601,38582
75612,38607
75761,38757
75956,38838
76168,38838
76308,38780
76263,38898
76850,39485
77437,38898
77381,38753
77060,38606
76707,38593
76423,38698
76513,38608
76577,38452
76748,38523
76951,38523
77139,38445
77284,38302
77362,38114
77362,37910
77284,37722
77140,37578
76952,37500
76749,37499
76594,37563
76594,37414
76513,37219
76420,37125
76513,37033
76594,36838
76594,36688
76748,36751
76951,36752
77139,36674
77284,36530
77362,36342
77362,36138
77284,35950
77140,35806
76952,35728
76749,35728
76651,35768
76599,35626
76640,35645
76993,35658
77325,35535
77381,35497
77437,35353
76850,34766
76844,34771
76842,34769
76848,34763
76852,34763
77439,35350
77584,35295
77732,34973
77745,34620
77622,34288
77584,34232
77439,34176
76852,34763
76848,34763
76261,34176
76116,34232
75968,34553
75955,34907
76078,35238
76116,35295
76261,35350
76254,35357
76207,35336
75963,35327
75734,35412
75696,35437
75674,35554
76062,35942
76068,35937
76070,35939
76065,35944
76070,35950
76068,35952
76062,35947
75674,36335
75679,36363
75612,36430
75531,36626
75531,36837
75612,37032
75705,37126
75612,37218
75531,37413
75531,37624
75612,37820
75705,37913
75612,38005
75601,38031
75437,38031
75422,37951
75374,37877
75302,37828
75216,37810
74704,37810
74624,37825
74550,37873
74501,37945
74483,38031
74483,38051
74340,38051
72962,36673
73998,36673
74034,36728
74107,36778
74192,36795
74547,36795
74627,36780
74701,36733
74750,36660
74768,36574
74768,36102
74757,36044
75445,36044
75530,36272
75556,36311
75672,36333
76060,35944
75672,35556
75556,35578
75454,35800
75445,36044
74757,36044
74752,36022
74705,35948
74641,35905
74701,35866
74750,35794
74768,35708
74768,35236
74752,35155
74705,35082
74633,35032
74547,35015
74365,35015
74098,34670
74098,34370
74083,34289
74045,34230
74046,34229
74101,34174
76263,34174
76850,34761
77437,34174
77381,34029
77060,33882
76707,33868
76375,33991
76318,34029
76263,34174
74101,34174
74130,34145
74176,34035
74176,33816
74101,33741
73702,33741
73702,33749
73699,33749
73699,33741
73299,33741
73225,33816
73225,34035
73270,34145
73354,34229
73357,34230
73320,34284
73302,34370
73302,34842
73317,34922
73365,34996
73437,35045
73523,35063
73705,35063
73972,35408
73972,35708
73987,35788
74034,35862
74098,35906
74038,35944
73989,36016
73972,36102
73972,36122
72802,36122
72784,36077
72623,35916
72414,35829
72186,35829
71977,35915
71816,36076
71796,36124
71300,36124
71194,36145
71194,36145
71194,36145
71105,36205
67661,39648
67614,39629
67386,39629
67177,39715
67016,39876
66929,40085
66929,40313
66070,40313
66070,40286
66051,40238
66297,39992
66356,39903
66377,39797
66377,39797
66377,37201
66418,37193
66492,37146
66541,37074
66559,36988
66559,36633
66544,36553
66496,36479
66424,36430
66377,36421
66377,36414
66418,36406
66492,36359
66541,36286
66559,36200
66559,35846
66544,35766
66496,35692
66424,35643
66377,35633
66377,35433
66371,35400
66356,35327
66297,35238
65970,34911
65970,34786
65941,34715
68893,34715
68971,34903
69115,35047
69303,35125
69506,35126
69695,35048
69839,34904
69917,34716
69917,34715
70814,34715
70892,34903
71036,35047
71224,35125
71428,35126
71616,35048
71760,34904
71838,34716
71838,34512
71760,34324
71617,34180
71429,34102
71225,34102
71037,34180
70893,34323
70815,34511
70814,34715
69917,34715
69917,34512
69839,34324
69695,34180
69507,34102
69304,34102
69115,34180
68971,34323
68893,34511
68893,34715
65941,34715
65884,34577
65723,34416
65514,34329
65286,34329
65077,34415
64916,34576
64829,34785
64829,35013
64915,35222
65076,35383
65285,35470
65513,35470
65681,35401
65826,35547
65826,35633
65785,35640
65712,35688
65668,35751
65630,35692
65558,35643
65472,35625
65000,35625
64919,35640
64846,35688
64805,35748
64249,35748
64213,35692
64141,35643
64055,35625
63582,35625
63502,35640
63428,35688
63385,35751
63347,35692
63274,35643
63228,35633
63228,35078
63219,35032
63207,34973
63147,34883
62600,34336
62510,34276
62405,34255
62146,34255
62080,34157
62172,34119
62256,34035
62302,33925
62302,33607
62227,33533
61670,33533
61670,33540
61667,33540
61667,33533
61110,33533
61036,33607
60167,33607
60167,33137
61036,33137
61036,33455
61110,33529
61667,33529
61667,32973
61670,32973
61670,33529
62227,33529
62302,33455
62302,33444
73225,33444
73225,33663
73299,33738
73699,33738
73699,33280
73702,33280
73702,33738
74101,33738
74176,33663
74176,33444
74130,33334
74046,33250
73937,33205
73776,33205
73702,33280
73699,33280
73624,33205
73464,33205
73354,33250
73270,33334
73225,33444
62302,33444
62302,33137
62256,33027
62172,32943
62063,32898
61745,32898
61670,32973
61667,32973
61593,32898
61275,32898
61165,32943
61081,33027
61036,33137
60167,33137
60167,32765
78494,32765
78494,41328
" /> 
</g>
<g style="fill:#FFFFFF; fill-opacity:1.0; 
stroke:#FFFFFF; stroke-width:196.85; stroke-opacity:1; 
stroke-linecap:round; stroke-linejoin:round;">
</g>
<g style="fill:#FFFFFF; fill-opacity:1.0; 
stroke:#FFFFFF; stroke-width:0; stroke-opacity:1; 
stroke-linecap:round; stroke-linejoin:round;">
<circle cx="65500" cy="40400" r="68.8976" /> 
</g>
<g style="fill:#FFFFFF; fill-opacity:1.0; 
stroke:#FFFFFF; stroke-width:39.3701; stroke-opacity:1; 
stroke-linecap:round; stroke-linejoin:round;">
</g>
<g style="fill:#FFFFFF; fill-opacity:1.0; 
stroke:#FFFFFF; stroke-width:0; stroke-opacity:1; 
stroke-linecap:round; stroke-linejoin:round;">
<circle cx="65400" cy="34900" r="68.8976" /> 
</g>
<g style="fill:#FFFFFF; fill-opacity:1.0; 
stroke:#FFFFFF; stroke-width:39.3701; stroke-opacity:1; 
stroke-linecap:round; stroke-linejoin:round;">
</g>
<g style="fill:#FFFFFF; fill-opacity:1.0; 
stroke:#FFFFFF; stroke-width:0; stroke-opacity:1; 
stroke-linecap:round; stroke-linejoin:round;">
<circle cx="67500" cy="40200" r="68.8976" /> 
</g>
<g style="fill:#FFFFFF; fill-opacity:1.0; 
stroke:#FFFFFF; stroke-width:39.3701; stroke-opacity:1; 
stroke-linecap:round; stroke-linejoin:round;">
</g>
<g style="fill:#FFFFFF; fill-opacity:1.0; 
stroke:#FFFFFF; stroke-width:0; stroke-opacity:1; 
stroke-linecap:round; stroke-linejoin:round;">
<circle cx="72300" cy="36400" r="68.8976" /> 
</g>
<g style="fill:#FFFFFF; fill-opacity:1.0; 
stroke:#FFFFFF; stroke-width:39.3701; stroke-opacity:1; 
stroke-linecap:round; stroke-linejoin:round;">
</g>
<g style="fill:#FFFFFF; fill-opacity:1.0; 
stroke:#FFFFFF; stroke-width:0; stroke-opacity:1; 
stroke-linecap:round; stroke-linejoin:round;">
<circle cx="61669.3" cy="33531.5" r="68.8976" /> 
</g>
<g style="fill:#FFFFFF; fill-opacity:1.0; 
stroke:#FFFFFF; stroke-width:39.3701; stroke-opacity:1; 
stroke-linecap:round; stroke-linejoin:round;">
</g>
<g style="fill:#FFFFFF; fill-opacity:1.0; 
stroke:#FFFFFF; stroke-width:0; stroke-opacity:1; 
stroke-linecap:round; stroke-linejoin:round;">
<circle cx="61669.3" cy="34531.5" r="68.8976" /> 
</g>
<g style="fill:#FFFFFF; fill-opacity:1.0; 
stroke:#FFFFFF; stroke-width:39.3701; stroke-opacity:1; 
stroke-linecap:round; stroke-linejoin:round;">
</g>
<g style="fill:#FFFFFF; fill-opacity:1.0; 
stroke:#FFFFFF; stroke-width:0; stroke-opacity:1; 
stroke-linecap:round; stroke-linejoin:round;">
<circle cx="61669.3" cy="35531.5" r="68.8976" /> 
</g>
<g style="fill:#FFFFFF; fill-opacity:1.0; 
stroke:#FFFFFF; stroke-width:39.3701; stroke-opacity:1; 
stroke-linecap:round; stroke-linejoin:round;">
</g>
<g style="fill:#FFFFFF; fill-opacity:1.0; 
stroke:#FFFFFF; stroke-width:0; stroke-opacity:1; 
stroke-linecap:round; stroke-linejoin:round;">
<circle cx="61669.3" cy="36531.5" r="68.8976" /> 
</g>
<g style="fill:#FFFFFF; fill-opacity:1.0; 
stroke:#FFFFFF; stroke-width:39.3701; stroke-opacity:1; 
stroke-linecap:round; stroke-linejoin:round;">
</g>
<g style="fill:#FFFFFF; fill-opacity:1.0; 
stroke:#FFFFFF; stroke-width:0; stroke-opacity:1; 
stroke-linecap:round; stroke-linejoin:round;">
<circle cx="61669.3" cy="37531.5" r="68.8976" /> 
</g>
<g style="fill:#FFFFFF; fill-opacity:1.0; 
stroke:#FFFFFF; stroke-width:39.3701; stroke-opacity:1; 
stroke-linecap:round; stroke-linejoin:round;">
</g>
<g style="fill:#FFFFFF; fill-opacity:1.0; 
stroke:#FFFFFF; stroke-width:0; stroke-opacity:1; 
stroke-linecap:round; stroke-linejoin:round;">
<circle cx="61669.3" cy="38531.5" r="68.8976" /> 
</g>
<g style="fill:#FFFFFF; fill-opacity:1.0; 
stroke:#FFFFFF; stroke-width:39.3701; stroke-opacity:1; 
stroke-linecap:round; stroke-linejoin:round;">
</g>
<g style="fill:#FFFFFF; fill-opacity:1.0; 
stroke:#FFFFFF; stroke-width:0; stroke-opacity:1; 
stroke-linecap:round; stroke-linejoin:round;">
<circle cx="61669.3" cy="39531.5" r="68.8976" /> 
</g>
<g style="fill:#FFFFFF; fill-opacity:1.0; 
stroke:#FFFFFF; stroke-width:39.3701; stroke-opacity:1; 
stroke-linecap:round; stroke-linejoin:round;">
</g>
<g style="fill:#FFFFFF; fill-opacity:1.0; 
stroke:#FFFFFF; stroke-width:0; stroke-opacity:1; 
stroke-linecap:round; stroke-linejoin:round;">
<circle cx="61669.3" cy="40531.5" r="68.8976" /> 
</g>
<g style="fill:#FFFFFF; fill-opacity:1.0; 
stroke:#FFFFFF; stroke-width:39.3701; stroke-opacity:1; 
stroke-linecap:round; stroke-linejoin:round;">
</g>
<g style="fill:#FFFFFF; fill-opacity:1.0; 
stroke:#FFFFFF; stroke-width:0; stroke-opacity:1; 
stroke-linecap:round; stroke-linejoin:round;">
<circle cx="69405.5" cy="34614.2" r="68.8976" /> 
</g>
<g style="fill:#FFFFFF; fill-opacity:1.0; 
stroke:#FFFFFF; stroke-width:39.3701; stroke-opacity:1; 
stroke-linecap:round; stroke-linejoin:round;">
</g>
<g style="fill:#FFFFFF; fill-opacity:1.0; 
stroke:#FFFFFF; stroke-width:0; stroke-opacity:1; 
stroke-linecap:round; stroke-linejoin:round;">
<circle cx="71326.8" cy="34614.2" r="68.8976" /> 
</g>
<g style="fill:#FFFFFF; fill-opacity:1.0; 
stroke:#FFFFFF; stroke-width:39.3701; stroke-opacity:1; 
stroke-linecap:round; stroke-linejoin:round;">
</g>
<g style="fill:#FFFFFF; fill-opacity:1.0; 
stroke:#FFFFFF; stroke-width:0; stroke-opacity:1; 
stroke-linecap:round; stroke-linejoin:round;">
<circle cx="63992.1" cy="37755.9" r="68.8976" /> 
</g>
<g style="fill:#FFFFFF; fill-opacity:1.0; 
stroke:#FFFFFF; stroke-width:39.3701; stroke-opacity:1; 
stroke-linecap:round; stroke-linejoin:round;">
</g>
<g style="fill:#FFFFFF; fill-opacity:1.0; 
stroke:#FFFFFF; stroke-width:0; stroke-opacity:1; 
stroke-linecap:round; stroke-linejoin:round;">
<circle cx="63779.5" cy="39055.1" r="68.8976" /> 
</g>
<g style="fill:#FFFFFF; fill-opacity:1.0; 
stroke:#FFFFFF; stroke-width:39.3701; stroke-opacity:1; 
stroke-linecap:round; stroke-linejoin:round;">
</g>
<g style="fill:#FFFFFF; fill-opacity:1.0; 
stroke:#FFFFFF; stroke-width:0; stroke-opacity:1; 
stroke-linecap:round; stroke-linejoin:round;">
<circle cx="64779.5" cy="39055.1" r="68.8976" /> 
</g>
<g style="fill:#FFFFFF; fill-opacity:1.0; 
stroke:#FFFFFF; stroke-width:39.3701; stroke-opacity:1; 
stroke-linecap:round; stroke-linejoin:round;">
</g>
<g style="fill:#FFFFFF; fill-opacity:1.0; 
stroke:#FFFFFF; stroke-width:0; stroke-opacity:1; 
stroke-linecap:round; stroke-linejoin:round;">
<circle cx="62992.1" cy="37755.9" r="68.8976" /> 
</g>
<g style="fill:#FFFFFF; fill-opacity:1.0; 
stroke:#FFFFFF; stroke-width:39.3701; stroke-opacity:1; 
stroke-linecap:round; stroke-linejoin:round;">
</g>
<g style="fill:#FFFFFF; fill-opacity:1.0; 
stroke:#FFFFFF; stroke-width:0; stroke-opacity:1; 
stroke-linecap:round; stroke-linejoin:round;">
<circle cx="63189" cy="40511.8" r="68.8976" /> 
</g>
<g style="fill:#FFFFFF; fill-opacity:1.0; 
stroke:#FFFFFF; stroke-width:39.3701; stroke-opacity:1; 
stroke-linecap:round; stroke-linejoin:round;">
</g>
<g style="fill:#FFFFFF; fill-opacity:1.0; 
stroke:#FFFFFF; stroke-width:0; stroke-opacity:1; 
stroke-linecap:round; stroke-linejoin:round;">
<circle cx="64189" cy="40511.8" r="68.8976" /> 
</g>
<g style="fill:#FFFFFF; fill-opacity:1.0; 
stroke:#FFFFFF; stroke-width:39.3701; stroke-opacity:1; 
stroke-linecap:round; stroke-linejoin:round;">
</g>
<g style="fill:#FFFFFF; fill-opacity:1.0; 
stroke:#FFFFFF; stroke-width:0; stroke-opacity:1; 
stroke-linecap:round; stroke-linejoin:round;">
<circle cx="76850.4" cy="38011.8" r="68.8976" /> 
</g>
<g style="fill:#FFFFFF; fill-opacity:1.0; 
stroke:#FFFFFF; stroke-width:39.3701; stroke-opacity:1; 
stroke-linecap:round; stroke-linejoin:round;">
</g>
<g style="fill:#FFFFFF; fill-opacity:1.0; 
stroke:#FFFFFF; stroke-width:0; stroke-opacity:1; 
stroke-linecap:round; stroke-linejoin:round;">
<circle cx="76063" cy="36732.3" r="68.8976" /> 
</g>
<g style="fill:#FFFFFF; fill-opacity:1.0; 
stroke:#FFFFFF; stroke-width:39.3701; stroke-opacity:1; 
stroke-linecap:round; stroke-linejoin:round;">
</g>
<g style="fill:#FFFFFF; fill-opacity:1.0; 
stroke:#FFFFFF; stroke-width:0; stroke-opacity:1; 
stroke-linecap:round; stroke-linejoin:round;">
<circle cx="76063" cy="37519.7" r="68.8976" /> 
</g>
<g style="fill:#FFFFFF; fill-opacity:1.0; 
stroke:#FFFFFF; stroke-width:39.3701; stroke-opacity:1; 
stroke-linecap:round; stroke-linejoin:round;">
</g>
<g style="fill:#FFFFFF; fill-opacity:1.0; 
stroke:#FFFFFF; stroke-width:0; stroke-opacity:1; 
stroke-linecap:round; stroke-linejoin:round;">
<circle cx="76063" cy="35944.9" r="68.8976" /> 
</g>
<g style="fill:#FFFFFF; fill-opacity:1.0; 
stroke:#FFFFFF; stroke-width:39.3701; stroke-opacity:1; 
stroke-linecap:round; stroke-linejoin:round;">
</g>
<g style="fill:#FFFFFF; fill-opacity:1.0; 
stroke:#FFFFFF; stroke-width:0; stroke-opacity:1; 
stroke-linecap:round; stroke-linejoin:round;">
<circle cx="76063" cy="38307.1" r="68.8976" /> 
</g>
<g style="fill:#FFFFFF; fill-opacity:1.0; 
stroke:#FFFFFF; stroke-width:39.3701; stroke-opacity:1; 
stroke-linecap:round; stroke-linejoin:round;">
</g>
<g style="fill:#FFFFFF; fill-opacity:1.0; 
stroke:#FFFFFF; stroke-width:0; stroke-opacity:1; 
stroke-linecap:round; stroke-linejoin:round;">
<circle cx="76850.4" cy="34763.8" r="68.8976" /> 
</g>
<g style="fill:#FFFFFF; fill-opacity:1.0; 
stroke:#FFFFFF; stroke-width:39.3701; stroke-opacity:1; 
stroke-linecap:round; stroke-linejoin:round;">
</g>
<g style="fill:#FFFFFF; fill-opacity:1.0; 
stroke:#FFFFFF; stroke-width:0; stroke-opacity:1; 
stroke-linecap:round; stroke-linejoin:round;">
<circle cx="76850.4" cy="39488.2" r="68.8976" /> 
</g>
<g style="fill:#FFFFFF; fill-opacity:1.0; 
stroke:#FFFFFF; stroke-width:39.3701; stroke-opacity:1; 
stroke-linecap:round; stroke-linejoin:round;">
</g>
<g style="fill:#FFFFFF; fill-opacity:1.0; 
stroke:#FFFFFF; stroke-width:0; stroke-opacity:1; 
stroke-linecap:round; stroke-linejoin:round;">
<circle cx="76850.4" cy="36240.2" r="68.8976" /> 
</g>
<g style="fill:#FFFFFF; fill-opacity:1.0; 
stroke:#FFFFFF; stroke-width:39.3701; stroke-opacity:1; 
stroke-linecap:round; stroke-linejoin:round;">
</g>
<g style="fill:#000000; fill-opacity:1.0; 
stroke:#000000; stroke-width:39.3701; stroke-opacity:1; 
stroke-linecap:round; stroke-linejoin:round;">
</g> 
</svg>
